HIERARCHY
ROOT Hips
{
	OFFSET 0.000000 35.082581 0.000000
	CHANNELS 6 Xposition Yposition Zposition Xrotation Yrotation Zrotation 
	JOINT Spine
	{
		OFFSET 0.000000 6.876099 0.125700
		CHANNELS 3 Xrotation Yrotation Zrotation
		JOINT Spine1
		{
			OFFSET 0.000000 5.730043 0.104720
			CHANNELS 3 Xrotation Yrotation Zrotation
			JOINT Spine1_split
			{
				OFFSET 0.000000 5.730043 0.104720
				CHANNELS 3 Xrotation Yrotation Zrotation
				JOINT Spine2
				{
					OFFSET 0.000000 5.730043 0.104720
					CHANNELS 3 Xrotation Yrotation Zrotation
					JOINT Neck
					{
						OFFSET 0.000000 10.314075 0.188496
						CHANNELS 3 Xrotation Yrotation Zrotation
						JOINT Head
						{
							OFFSET 0.000000 7.643700 -2.377400
							CHANNELS 3 Xrotation Yrotation Zrotation
							JOINT HeadTop_End
							{
								OFFSET 0.000000 43.788605 -13.619600
								CHANNELS 3 Xrotation Yrotation Zrotation
								End Site
								{
									OFFSET 0.000000 0.000000 0.000000
								}
							}
						}
					}
					JOINT LeftShoulder
					{
						OFFSET 2.196100 4.412489 0.087492
						CHANNELS 3 Xrotation Yrotation Zrotation
						JOINT LeftShoulder_split
						{
							OFFSET 2.196100 4.412489 0.087492
							CHANNELS 3 Xrotation Yrotation Zrotation
							JOINT LeftArm
							{
								OFFSET 8.771219 -2.981674 -0.026999
								CHANNELS 3 Xrotation Yrotation Zrotation
								JOINT LeftForeArm
								{
									OFFSET 8.512804 0.000000 -0.000000
									CHANNELS 3 Xrotation Yrotation Zrotation
									JOINT LeftHand
									{
										OFFSET 18.484802 0.000000 -0.000000
										CHANNELS 3 Xrotation Yrotation Zrotation
										JOINT LeftHandThumb1
										{
											OFFSET 2.499420 -1.158070 2.653252
											CHANNELS 3 Xrotation Yrotation Zrotation
											JOINT LeftHandThumb2
											{
												OFFSET 2.370079 -1.368366 1.368366
												CHANNELS 3 Xrotation Yrotation Zrotation
												JOINT LeftHandThumb3
												{
													OFFSET 2.676727 -1.545410 1.545409
													CHANNELS 3 Xrotation Yrotation Zrotation
													JOINT LeftHandThumb4
													{
														OFFSET 1.692226 -0.977005 0.977007
														CHANNELS 3 Xrotation Yrotation Zrotation
														End Site
														{
															OFFSET 0.000000 0.000000 0.000000
														}
													}
												}
											}
										}
										JOINT LeftHandIndex1
										{
											OFFSET 7.924831 -0.457527 2.345128
											CHANNELS 3 Xrotation Yrotation Zrotation
											JOINT LeftHandIndex2
											{
												OFFSET 3.643303 0.000000 0.000000
												CHANNELS 3 Xrotation Yrotation Zrotation
												JOINT LeftHandIndex3
												{
													OFFSET 3.810799 0.000000 0.000000
													CHANNELS 3 Xrotation Yrotation Zrotation
													JOINT LeftHandIndex4
													{
														OFFSET 2.403702 0.000000 0.000000
														CHANNELS 3 Xrotation Yrotation Zrotation
														End Site
														{
															OFFSET 0.000000 0.000000 0.000000
														}
													}
												}
											}
										}
										JOINT LeftHandMiddle1
										{
											OFFSET 8.563995 0.000000 -0.000000
											CHANNELS 3 Xrotation Yrotation Zrotation
											JOINT LeftHandMiddle2
											{
												OFFSET 3.861618 0.000000 0.000000
												CHANNELS 3 Xrotation Yrotation Zrotation
												JOINT LeftHandMiddle3
												{
													OFFSET 3.701603 0.000000 0.000000
													CHANNELS 3 Xrotation Yrotation Zrotation
													JOINT LeftHandMiddle4
													{
														OFFSET 2.322544 0.000000 0.000000
														CHANNELS 3 Xrotation Yrotation Zrotation
														End Site
														{
															OFFSET 0.000000 0.000000 0.000000
														}
													}
												}
											}
										}
										JOINT LeftHandRing1
										{
											OFFSET 8.426460 -0.424637 -3.286992
											CHANNELS 3 Xrotation Yrotation Zrotation
											JOINT LeftHandRing2
											{
												OFFSET 3.126408 0.000000 0.000000
												CHANNELS 3 Xrotation Yrotation Zrotation
												JOINT LeftHandRing3
												{
													OFFSET 3.085026 0.000000 0.000000
													CHANNELS 3 Xrotation Yrotation Zrotation
													JOINT LeftHandRing4
													{
														OFFSET 1.644005 0.000000 0.000000
														CHANNELS 3 Xrotation Yrotation Zrotation
														End Site
														{
															OFFSET 0.000000 0.000000 0.000000
														}
													}
												}
											}
										}
									}
								}
							}
						}
					}
					JOINT RightShoulder
					{
						OFFSET -2.196100 4.412496 0.070690
						CHANNELS 3 Xrotation Yrotation Zrotation
						JOINT RightShoulder_split
						{
							OFFSET -2.196100 4.412496 0.070690
							CHANNELS 3 Xrotation Yrotation Zrotation
							JOINT RightArm
							{
								OFFSET -8.771282 -2.981682 -0.094208
								CHANNELS 3 Xrotation Yrotation Zrotation
								JOINT RightForeArm
								{
									OFFSET -8.494598 0.000000 0.000000
									CHANNELS 3 Xrotation Yrotation Zrotation
									JOINT RightHand
									{
										OFFSET -18.483803 0.000000 0.000001
										CHANNELS 3 Xrotation Yrotation Zrotation
										JOINT RightHandThumb1
										{
											OFFSET -2.527351 -1.008072 2.575253
											CHANNELS 3 Xrotation Yrotation Zrotation
											JOINT RightHandThumb2
											{
												OFFSET -2.321518 -1.340328 1.340329
												CHANNELS 3 Xrotation Yrotation Zrotation
												JOINT RightHandThumb3
												{
													OFFSET -2.657753 -1.534454 1.534455
													CHANNELS 3 Xrotation Yrotation Zrotation
													JOINT RightHandThumb4
													{
														OFFSET -1.807510 -1.043568 1.043567
														CHANNELS 3 Xrotation Yrotation Zrotation
														End Site
														{
															OFFSET 0.000000 0.000000 0.000000
														}
													}
												}
											}
										}
										JOINT RightHandIndex1
										{
											OFFSET -8.811420 0.015533 2.887987
											CHANNELS 3 Xrotation Yrotation Zrotation
											JOINT RightHandIndex2
											{
												OFFSET -3.537502 0.000000 0.000000
												CHANNELS 3 Xrotation Yrotation Zrotation
												JOINT RightHandIndex3
												{
													OFFSET -3.356201 0.000000 0.000000
													CHANNELS 3 Xrotation Yrotation Zrotation
													JOINT RightHandIndex4
													{
														OFFSET -1.933098 0.000000 0.000000
														CHANNELS 3 Xrotation Yrotation Zrotation
														End Site
														{
															OFFSET 0.000000 0.000000 0.000000
														}
													}
												}
											}
										}
										JOINT RightHandMiddle1
										{
											OFFSET -8.178135 0.000000 0.000000
											CHANNELS 3 Xrotation Yrotation Zrotation
											JOINT RightHandMiddle2
											{
												OFFSET -3.901302 0.000000 0.000000
												CHANNELS 3 Xrotation Yrotation Zrotation
												JOINT RightHandMiddle3
												{
													OFFSET -3.909599 0.000000 0.000000
													CHANNELS 3 Xrotation Yrotation Zrotation
													JOINT RightHandMiddle4
													{
														OFFSET -2.376003 0.000000 0.000000
														CHANNELS 3 Xrotation Yrotation Zrotation
														End Site
														{
															OFFSET 0.000000 0.000000 0.000000
														}
													}
												}
											}
										}
										JOINT RightHandRing1
										{
											OFFSET -7.559013 0.014137 -2.865403
											CHANNELS 3 Xrotation Yrotation Zrotation
											JOINT RightHandRing2
											{
												OFFSET -3.449306 0.000000 0.000000
												CHANNELS 3 Xrotation Yrotation Zrotation
												JOINT RightHandRing3
												{
													OFFSET -3.362106 0.000000 0.000000
													CHANNELS 3 Xrotation Yrotation Zrotation
													JOINT RightHandRing4
													{
														OFFSET -2.076401 0.000000 0.000000
														CHANNELS 3 Xrotation Yrotation Zrotation
														End Site
														{
															OFFSET 0.000000 0.000000 0.000000
														}
													}
												}
											}
										}
									}
								}
							}
						}
					}
				}
			}
		}
	}
	JOINT LeftUpLeg
	{
		OFFSET 10.205400 -3.823500 0.155100
		CHANNELS 3 Xrotation Yrotation Zrotation
		JOINT LeftLeg
		{
			OFFSET 0.708757 -12.982077 0.567790
			CHANNELS 3 Xrotation Yrotation Zrotation
			JOINT LeftFoot
			{
				OFFSET -0.708756 -10.717838 -2.184338
				CHANNELS 3 Xrotation Yrotation Zrotation
				JOINT LeftToeBase
				{
					OFFSET 0.108149 -7.191104 7.560241
					CHANNELS 3 Xrotation Yrotation Zrotation
					JOINT LeftToe_End
					{
						OFFSET 0.070230 0.081724 4.490308
						CHANNELS 3 Xrotation Yrotation Zrotation
						End Site
						{
							OFFSET 0.000000 0.000000 0.000000
						}
					}
				}
			}
		}
	}
	JOINT RightUpLeg
	{
		OFFSET -10.205400 -3.823500 0.005500
		CHANNELS 3 Xrotation Yrotation Zrotation
		JOINT RightLeg
		{
			OFFSET -0.708756 -12.982134 0.610632
			CHANNELS 3 Xrotation Yrotation Zrotation
			JOINT RightFoot
			{
				OFFSET 0.708754 -10.717769 -1.945823
				CHANNELS 3 Xrotation Yrotation Zrotation
				JOINT RightToeBase
				{
					OFFSET -0.108140 -7.191069 7.372968
					CHANNELS 3 Xrotation Yrotation Zrotation
					JOINT RightToe_End
					{
						OFFSET -0.070227 0.081735 4.479403
						CHANNELS 3 Xrotation Yrotation Zrotation
						End Site
						{
							OFFSET 0.000000 0.000000 0.000000
						}
					}
				}
			}
		}
	}
}
MOTION
Frames: 6
Frame Time: 0.016667
-56.753239 12.598974 9.864203 3.457939 0.755650 -42.945760 26.982638 -0.231525 -11.681272 4.579547 1.205238 -2.831995 0.000000 0.000000 0.000000 4.490622 1.286407 -2.943296 -2.042165 1.139533 0.937748 -3.993386 18.457114 0.270710 -0.000002 0.000002 0.000000 -1.373420 -20.809904 -17.189949 0.000000 0.000000 0.000000 -48.855339 35.869097 -5.133205 -0.000005 -67.519575 -0.000023 -8.667120 25.097330 88.863514 -18.674885 -12.715917 12.000641 5.781723 26.667871 7.360278 -10.020042 -14.017857 7.739302 -0.000004 0.000003 -0.000002 -0.114402 -6.949164 -4.727147 -0.000004 -0.000004 0.000006 0.033142 -0.622955 6.090726 0.000000 -0.000001 -0.000000 0.098866 -2.457606 0.172474 0.069076 0.897939 -8.797556 0.006109 0.267942 -2.615546 -0.000000 0.000003 -0.000001 0.130747 1.053435 3.316417 0.099485 1.076172 -10.562543 0.143892 1.291749 -12.711524 0.000001 -0.000003 0.000000 0.401274 16.298363 -0.998253 0.000000 0.000000 0.000000 -40.005234 -32.703970 -10.775229 0.000008 46.721537 -0.000006 -50.663864 -2.035174 11.091351 -36.432864 17.171386 -23.039116 7.506132 -18.062848 -3.520400 -7.056233 3.100997 -14.195945 0.000001 0.000001 0.000003 0.815364 4.038544 -1.787533 -0.000006 -0.000004 0.000004 0.007208 0.259252 -3.184061 0.000001 0.000002 -0.000002 0.053659 -1.961529 -1.170901 0.000001 -0.001806 0.022163 0.073032 0.822389 -10.149067 0.000001 -0.000001 -0.000003 0.143742 -11.067574 0.271834 0.000001 0.000004 0.000010 0.119073 1.047506 -12.970655 -0.000001 0.000002 0.000002 -131.838511 -5.975238 3.925250 18.182484 -7.564204 1.700479 53.805269 -6.780902 36.465506 -7.908914 0.000010 -0.000001 0.000002 0.000001 0.000003 -55.965949 -18.773731 -23.707336 122.402427 29.906301 4.754587 -28.512145 31.497380 -5.705467 -41.082946 0.000253 0.000098 -0.000000 0.000000 0.000000 
-56.555542 12.940016 9.432599 3.221853 0.540901 -43.780293 26.474240 -0.898583 -12.283307 4.544305 1.067062 -3.000537 0.000000 0.000000 0.000000 4.469506 1.152583 -3.102268 -2.049342 1.250614 0.923243 -3.430782 19.437299 0.140226 0.000002 -0.000003 -0.000001 -0.738572 -20.006913 -16.433073 0.000000 0.000000 0.000000 -50.129258 35.122247 -5.603032 -0.000010 -67.864281 -0.000016 -7.308366 26.200081 89.911661 -18.673734 -12.714357 12.002623 5.779683 26.667113 7.363958 -10.020045 -14.017857 7.739298 -0.000003 -0.000001 -0.000002 -0.114866 -6.948371 -4.729059 -0.000003 -0.000011 -0.000001 0.033451 -0.625844 6.119070 0.000000 0.000002 0.000000 0.098902 -2.457255 0.173008 0.068624 0.895034 -8.768864 0.005854 0.262085 -2.558340 -0.000001 -0.000001 0.000000 0.130714 1.054179 3.317219 0.098833 1.072692 -10.528019 0.141867 1.282744 -12.621332 -0.000000 -0.000002 0.000001 0.572094 17.177632 -1.647699 0.000000 0.000000 0.000000 -40.220675 -36.620554 -13.906575 -0.000003 47.792838 -0.000002 -49.852673 -3.546390 10.728628 -36.512586 17.028106 -23.229332 7.528395 -18.244752 -3.533561 -7.056231 3.101000 -14.195942 -0.000002 -0.000005 0.000003 0.824679 4.106020 -1.666727 -0.000002 -0.000005 0.000005 0.007207 0.259128 -3.182523 -0.000000 -0.000001 0.000000 0.055114 -1.872149 -1.095902 0.000001 -0.001858 0.022644 0.072357 0.818628 -10.101967 0.000000 0.000003 -0.000002 0.147344 -10.931690 0.311351 -0.000004 0.000002 0.000002 0.116606 1.036650 -12.834179 0.000001 0.000000 0.000000 -129.441101 -5.646185 4.051093 14.404321 -9.305844 1.408697 57.142134 -5.516686 35.599738 -8.731722 0.000013 0.000002 -0.000001 -0.000003 -0.000003 -56.425275 -19.965162 -21.653602 119.677031 28.068773 4.138366 -28.258537 30.547010 -2.849577 -39.837515 0.000235 0.000096 0.000000 -0.000000 -0.000000 
-56.415207 13.296408 8.956871 3.902996 0.432153 -44.593725 25.932178 -1.782373 -12.522717 4.488216 0.843236 -3.085116 0.000000 0.000000 0.000000 4.437032 0.931094 -3.173850 -2.023582 1.363342 0.939948 -3.072383 20.274365 0.360024 0.000001 0.000003 0.000000 -0.122290 -19.220892 -15.638191 0.000000 0.000000 0.000000 -51.499469 33.851640 -6.175568 0.000031 -67.064958 0.000046 -6.088700 26.491495 90.582358 -18.672568 -12.713404 12.004462 5.777664 26.666327 7.367565 -10.020045 -14.017858 7.739300 -0.000002 0.000001 -0.000000 -0.115391 -6.947560 -4.731090 0.000007 -0.000014 0.000014 0.033518 -0.626482 6.125279 -0.000000 -0.000001 -0.000000 0.098953 -2.456934 0.173605 0.068515 0.894346 -8.762161 0.005794 0.260725 -2.545009 0.000000 0.000001 -0.000000 0.130691 1.054925 3.318095 0.098679 1.071863 -10.519946 0.141393 1.280634 -12.600257 0.000001 -0.000003 0.000000 0.605475 17.139977 -2.151152 0.000000 0.000000 0.000000 -40.578489 -39.839336 -15.876073 -0.000032 48.762452 0.000031 -48.772458 -4.582370 9.448624 -36.561999 16.901318 -23.361294 7.551336 -18.432396 -3.547089 -7.056228 3.101003 -14.195940 -0.000001 0.000002 -0.000000 0.833844 4.174732 -1.543900 -0.000003 0.000004 0.000028 0.007189 0.259011 -3.180937 0.000001 -0.000001 -0.000003 0.056358 -1.781232 -1.019653 -0.000004 -0.001896 0.023231 0.071670 0.814769 -10.054024 -0.000003 -0.000002 -0.000001 0.150818 -10.793505 0.351494 -0.000001 -0.000003 0.000016 0.114098 1.025651 -12.695392 0.000000 -0.000002 0.000003 -131.085100 -5.370400 3.092306 18.313914 -7.278927 1.247905 55.741696 -4.677460 37.551475 -9.310788 0.000003 0.000005 -0.000002 -0.000000 0.000001 -57.065807 -21.398745 -19.452611 117.118073 26.214256 3.580346 -28.662431 29.806730 -0.408025 -38.668887 0.000246 0.000083 0.000001 0.000000 -0.000000 
-56.331581 13.675819 8.371666 5.053361 0.360384 -45.706253 25.481289 -2.833319 -12.421628 4.429971 0.562699 -3.087445 0.000000 0.000000 0.000000 4.399098 0.647811 -3.172084 -1.978521 1.469751 0.973263 -2.886839 20.911707 0.815785 0.000001 0.000000 0.000003 0.465877 -18.467168 -14.809588 0.000000 0.000000 0.000000 -53.117329 32.371033 -6.476318 0.000045 -65.498242 0.000070 -5.129221 26.194786 91.077192 -18.671439 -12.712506 12.006288 5.775791 26.665607 7.371050 -10.020043 -14.017852 7.739302 -0.000001 0.000003 0.000001 -0.115940 -6.946736 -4.733166 0.000011 -0.000003 0.000006 0.033432 -0.625699 6.117622 -0.000000 -0.000000 0.000000 0.098996 -2.456608 0.174209 0.068640 0.895136 -8.769938 0.005866 0.262305 -2.560509 -0.000001 0.000001 -0.000001 0.130655 1.055656 3.318950 0.098855 1.072818 -10.529230 0.141938 1.283090 -12.624709 0.000001 0.000000 0.000001 0.420661 16.309606 -2.316473 0.000000 0.000000 0.000000 -40.918553 -42.271163 -17.103670 -0.000011 49.709799 -0.000002 -47.434759 -5.281598 7.361186 -36.582176 16.789718 -23.436753 7.574903 -18.625472 -3.560996 -7.056233 3.100998 -14.195944 0.000001 0.000003 -0.000002 0.842839 4.244616 -1.419228 -0.000001 -0.000006 0.000074 0.007184 0.258850 -3.179256 -0.000001 -0.000000 -0.000000 0.057368 -1.688875 -0.942263 0.000001 -0.001957 0.023972 0.070978 0.810873 -10.005384 -0.000001 0.000000 -0.000002 0.154175 -10.653132 0.392201 0.000001 -0.000003 0.000021 0.111593 1.014441 -12.554414 -0.000000 -0.000003 -0.000003 -135.766539 -5.046627 1.219137 29.171957 -3.747912 0.910758 49.590916 -4.460625 42.463675 -9.566084 0.000024 -0.000003 0.000002 -0.000000 0.000001 -58.105813 -23.206698 -16.778421 114.385028 24.001783 3.029245 -28.870943 29.135927 1.896524 -37.574271 0.000222 0.000086 -0.000001 -0.000001 0.000000 
-56.287991 14.084114 7.738829 6.299664 0.201166 -47.142270 25.181378 -3.937660 -12.123840 4.380747 0.257268 -3.026146 0.000000 0.000000 0.000000 4.361410 0.331580 -3.128192 -1.937245 1.565079 1.011133 -2.872437 21.344097 1.397255 0.000002 0.000000 -0.000001 1.018428 -17.762517 -13.948064 0.000000 0.000000 0.000000 -54.948527 31.110924 -6.401443 0.000041 -63.876127 0.000055 -4.464845 25.679763 91.531973 -18.670312 -12.711704 12.008107 5.774258 26.664881 7.374371 -10.020045 -14.017859 7.739298 -0.000004 -0.000003 -0.000006 -0.116489 -6.945942 -4.735155 -0.000005 0.000006 -0.000006 0.033342 -0.624771 6.108452 0.000000 -0.000001 -0.000000 0.099041 -2.456319 0.174809 0.068760 0.895949 -8.777853 0.005939 0.263918 -2.576315 0.000001 -0.000000 -0.000000 0.130624 1.056364 3.319760 0.099035 1.073771 -10.538698 0.142493 1.285579 -12.649587 0.000001 0.000002 -0.000002 0.087509 15.029541 -2.189420 0.000000 0.000000 0.000000 -41.233473 -44.225103 -18.026821 -0.000010 50.705873 0.000002 -45.900562 -5.841226 4.743225 -36.574222 16.692344 -23.457591 7.599069 -18.823592 -3.575197 -7.056233 3.101006 -14.195947 -0.000003 -0.000000 0.000001 0.851652 4.315563 -1.292757 0.000003 -0.000002 0.000004 0.007179 0.258716 -3.177618 -0.000002 0.000001 0.000001 0.058154 -1.595177 -0.863737 0.000002 -0.002023 0.024750 0.070286 0.806906 -9.956006 -0.000003 -0.000001 0.000001 0.157408 -10.510734 0.433487 -0.000004 0.000005 -0.000003 0.109065 1.003071 -12.411398 -0.000004 0.000000 0.000003 -142.196547 -4.538396 -0.730296 42.418576 1.401009 0.517129 44.232517 -4.097746 46.679623 -9.986233 0.000011 0.000010 0.000001 0.000001 -0.000000 -59.155852 -25.042860 -14.044920 110.967549 21.615973 2.593416 -28.139645 27.920628 4.619254 -36.626193 0.000225 0.000078 0.000001 0.000001 0.000000 
-56.314339 14.502817 7.015885 7.614642 -0.051293 -48.823012 25.003222 -5.069688 -11.681423 4.340290 -0.053009 -2.926342 0.000000 0.000000 0.000000 4.326358 0.001580 -3.071865 -1.907615 1.651357 1.046746 -3.037800 21.624691 2.047956 0.000003 -0.000000 0.000003 1.528341 -17.124229 -13.055607 0.000000 0.000000 0.000000 -56.910967 30.147676 -5.988707 0.000010 -62.567333 0.000006 -3.977147 25.213367 91.843716 -18.669226 -12.711129 12.009887 5.772836 26.664189 7.377590 -10.020045 -14.017857 7.739298 -0.000003 0.000003 -0.000003 -0.117049 -6.945158 -4.737041 0.000005 0.000010 -0.000018 0.033295 -0.624392 6.104660 -0.000000 0.000000 -0.000000 0.099134 -2.456091 0.175960 0.068788 0.896123 -8.779752 0.005963 0.264313 -2.580095 -0.000001 0.000002 -0.000001 0.130613 1.056959 3.321217 0.099118 1.074203 -10.543102 0.142627 1.286152 -12.655524 0.000001 0.000002 -0.000000 -0.280784 13.602706 -1.925092 0.000000 0.000000 0.000000 -41.602365 -46.076548 -18.868474 0.000021 51.752135 -0.000012 -44.235963 -6.396591 1.833501 -36.539070 16.608471 -23.425746 7.623780 -19.026489 -3.589664 -7.056229 3.101005 -14.195935 0.000003 -0.000004 0.000003 0.860236 4.387530 -1.164615 -0.000006 -0.000002 0.000062 0.007175 0.258584 -3.175946 0.000000 0.000003 0.000001 0.058686 -1.500240 -0.784168 0.000010 -0.002090 0.025542 0.069573 0.802899 -9.905973 0.000000 -0.000002 0.000001 0.160491 -10.366425 0.475301 0.000003 -0.000004 0.000032 0.106545 0.991535 -12.266454 -0.000003 0.000000 -0.000001 -148.489979 -3.669400 -2.476024 55.116136 6.923638 0.030588 39.684526 -3.683136 49.337161 -11.086924 -0.000005 -0.000003 0.000003 -0.000001 0.000000 -60.539587 -27.138631 -11.391740 107.181145 19.122288 2.110606 -26.340899 26.640248 7.222481 -35.944301 0.000229 0.000079 0.000001 -0.000000 0.000000 
